<?xml version="1.0" encoding="UTF-8" standalone="no"?>
<!--
 Source: https://commons.wikimedia.org/wiki/File:CSS3_and_HTML5_logos_and_wordmarks.svg
 by daPhyre, CC-BY-3.0
 SVG cleaned up by Jochen Hoenicke -->
<svg width="364" height="512" xmlns="http://www.w3.org/2000/svg" version="1.1">
    <g transform="translate(-74,0)">
      <polygon
         points="437.367,100.62 404.321,470.819 255.778,512 107.644,470.877 74.633,100.62 "
         style="fill:#e44d26" />
      <polygon
         points="256,480.523 376.03,447.246 404.27,130.894 256,130.894 "
         style="fill:#f16529" />
      <polygon
         points="191.76,221.716 256,221.716 256,176.305 255.843,176.305 142.132,176.305 143.219,188.488 154.38,313.627 256,313.627 256,268.217 195.91,268.217 "
         style="fill:#ebebeb" />
      <polygon
         points="201.994,336.333 177.419,336.333 156.409,336.333 162.771,407.634 255.791,433.457 256,433.399 256,386.153 255.801,386.206 205.227,372.55 "
         style="fill:#ebebeb" />
      <path
         d="m 108.382,0 h 23.077 v 22.8 h 21.11 V 0 h 23.078 V 69.044 H 152.57 v -23.12 h -21.11 v 23.12 H 108.383 V 0 z" />
      <path
         d="M 205.994,22.896 H 185.678 V 0 h 63.72 V 22.896 H 229.073 V 69.044 H 205.995 V 22.896 z" />
      <path
         d="m 259.511,0 h 24.063 L 298.376,24.26 313.163,0 h 24.072 V 69.044 H 314.253 V 34.822 l -15.877,24.549 h -0.397 L 282.091,34.822 v 34.222 h -22.58 V 0 z" />
      <path
         d="m 348.72,0 h 23.084 v 46.222 h 32.453 V 69.044 H 348.72 V 0 z" />
      <polygon
         points="255.843,313.627 311.761,313.627 306.49,372.521 255.843,386.191 255.843,433.435 348.937,407.634 349.62,399.962 360.291,280.411 361.399,268.217 349.162,268.217 255.843,268.217 "
         style="fill:#ffffff" />
      <polygon
         points="255.843,221.605 255.843,221.716 365.385,221.716 365.385,221.716 365.531,221.716 366.442,211.509 368.511,188.488 369.597,176.305 255.843,176.305 255.843,204.509 "
         style="fill:#ffffff" />
  </g>
</svg>
